<?xml version="1.0" encoding="UTF-8" standalone="no"?>
<!-- Created with Inkscape (http://www.inkscape.org/) -->

<svg
   width="1236"
   height="512"
   viewBox="0 0 1236 512"
   version="1.1"
   id="svg5"
   xml:space="preserve"
   inkscape:version="1.2.2 (b0a8486541, 2022-12-01)"
   sodipodi:docname="1space-full.svg"
   xmlns:inkscape="http://www.inkscape.org/namespaces/inkscape"
   xmlns:sodipodi="http://sodipodi.sourceforge.net/DTD/sodipodi-0.dtd"
   xmlns:xlink="http://www.w3.org/1999/xlink"
   xmlns="http://www.w3.org/2000/svg"
   xmlns:svg="http://www.w3.org/2000/svg"><sodipodi:namedview
     id="namedview7"
     pagecolor="#505050"
     bordercolor="#eeeeee"
     borderopacity="1"
     inkscape:showpageshadow="0"
     inkscape:pageopacity="0"
     inkscape:pagecheckerboard="0"
     inkscape:deskcolor="#505050"
     inkscape:document-units="px"
     showgrid="false"
     inkscape:zoom="0.5"
     inkscape:cx="349"
     inkscape:cy="254"
     inkscape:window-width="1920"
     inkscape:window-height="1011"
     inkscape:window-x="0"
     inkscape:window-y="32"
     inkscape:window-maximized="1"
     inkscape:current-layer="layer1"
     showguides="false" /><defs
     id="defs2"><linearGradient
       inkscape:collect="always"
       id="linearGradient10868"><stop
         style="stop-color:#ffffff;stop-opacity:1;"
         offset="0"
         id="stop10864" /><stop
         style="stop-color:#ffffff;stop-opacity:0;"
         offset="1"
         id="stop10866" /></linearGradient><linearGradient
       inkscape:collect="always"
       xlink:href="#linearGradient10868"
       id="linearGradient10870"
       x1="252"
       y1="44"
       x2="264"
       y2="474"
       gradientUnits="userSpaceOnUse" /></defs><g
     inkscape:label="Layer 1"
     inkscape:groupmode="layer"
     id="layer1"><path
       d="m 256,462.90559 q -42.41565,0 -80.17592,-16.29381 -37.76027,-16.29382 -65.95115,-44.4847 Q 81.682039,373.93619 65.388218,336.17592 49.094409,298.41564 49.094409,256 q 0,-42.93291 16.293809,-80.43454 Q 81.682039,138.06381 109.87293,109.87293 138.06381,81.682038 175.82408,65.388229 213.58435,49.094408 256,49.094408 q 42.93291,0 80.43455,16.293821 37.50164,16.293809 65.69253,44.484701 28.19088,28.19088 44.48464,65.69253 16.29387,37.50163 16.29387,80.43454 0,42.41564 -16.29387,80.17592 -16.29376,37.76027 -44.48464,65.95116 -28.19089,28.19088 -65.69253,44.4847 Q 298.93291,462.90559 256,462.90559 Z m 0,-42.41565 q 13.44886,-18.6215 23.27688,-38.79479 9.82801,-20.1733 16.03518,-42.93291 h -78.62412 q 6.20716,22.75961 16.03518,42.93291 9.82801,20.17329 23.27688,38.79479 z m -53.79546,-8.27622 q -9.31075,-17.06971 -16.2938,-35.43258 -6.98307,-18.36287 -11.63845,-38.0189 h -61.03715 q 15.00066,25.86319 37.50164,45.00196 22.50098,19.13877 51.46776,28.44952 z m 107.59091,0 q 28.96679,-9.31075 51.46777,-28.44952 22.50098,-19.13877 37.50164,-45.00196 h -61.03715 q -4.65538,19.65603 -11.63844,38.0189 -6.98307,18.36287 -16.29382,35.43258 z M 95.648167,297.38112 h 70.347903 q -1.5518,-10.34528 -2.32769,-20.43192 -0.7759,-10.08666 -0.7759,-20.9492 0,-10.86255 0.7759,-20.94919 0.77589,-10.08665 2.32769,-20.43193 H 95.648167 q -2.58632,10.34528 -3.879474,20.43193 -1.293166,10.08664 -1.293166,20.94919 0,10.86254 1.293166,20.9492 1.293154,10.08664 3.879474,20.43192 z m 111.729013,0 h 97.24563 q 1.55179,-10.34528 2.3277,-20.43192 0.77589,-10.08666 0.77589,-20.9492 0,-10.86255 -0.77589,-20.94919 -0.77591,-10.08665 -2.3277,-20.43193 h -97.24563 q -1.55179,10.34528 -2.32768,20.43193 -0.7759,10.08664 -0.7759,20.94919 0,10.86254 0.7759,20.9492 0.77589,10.08664 2.32768,20.43192 z m 138.62675,0 h 70.3479 q 2.58632,-10.34528 3.87949,-20.43192 1.29315,-10.08666 1.29315,-20.9492 0,-10.86255 -1.29315,-20.94919 -1.29317,-10.08665 -3.87949,-20.43193 h -70.3479 q 1.55179,10.34528 2.32769,20.43193 0.77589,10.08664 0.77589,20.94919 0,10.86254 -0.77589,20.9492 -0.7759,10.08664 -2.32769,20.43192 z m -8.27622,-124.14336 h 61.03715 q -15.00066,-25.8632 -37.50164,-45.00196 -22.50098,-19.13877 -51.46777,-28.449522 9.31075,17.069712 16.29382,35.432592 6.98306,18.36286 11.63844,38.01889 z m -121.03977,0 h 78.62412 Q 289.10489,150.47815 279.27688,130.30485 269.44886,110.13156 256,91.510054 q -13.44887,18.621506 -23.27688,38.794796 -9.82802,20.1733 -16.03518,42.93291 z m -103.4528,0 h 61.03715 q 4.65538,-19.65603 11.63845,-38.01889 6.98305,-18.36288 16.2938,-35.432592 -28.96678,9.310752 -51.46776,28.449522 -22.50098,19.13876 -37.50164,45.00196 z"
       id="path524"
       style="fill:url(#linearGradient10870);fill-opacity:1;stroke-width:0.517264" /><text
       xml:space="preserve"
       style="white-space:pre;inline-size:34;fill:#ffffff;fill-opacity:1"
       x="220"
       y="240"
       id="text2037" /><text
       xml:space="preserve"
       style="font-style:normal;font-variant:normal;font-weight:normal;font-stretch:normal;font-size:362.667px;font-family:'Open Sans';-inkscape-font-specification:'Open Sans';text-align:center;text-anchor:middle;mix-blend-mode:normal;fill:#ffffff;stroke:#ffffff;stroke-width:8;stroke-linecap:square;stroke-linejoin:round;stroke-dasharray:none;stroke-opacity:1;paint-order:markers stroke fill"
       x="358.90881"
       y="385.44803"
       id="text952"><tspan
         sodipodi:role="line"
         id="tspan950"
         x="358.90881"
         y="385.44803"
         style="font-size:362.667px;text-align:end;text-anchor:end;stroke:#ffffff;stroke-width:8;stroke-dasharray:none;stroke-opacity:1">1</tspan></text><text
       xml:space="preserve"
       style="font-style:normal;font-variant:normal;font-weight:normal;font-stretch:normal;font-size:320px;font-family:'Open Sans';-inkscape-font-specification:'Open Sans';text-align:center;text-anchor:middle;mix-blend-mode:normal;fill:#ffffff;stroke:#ffffff;stroke-width:8;stroke-linecap:square;stroke-linejoin:round;stroke-dasharray:none;stroke-opacity:1;paint-order:markers stroke fill"
       x="1181.323"
       y="387.44803"
       id="text952-3"><tspan
         sodipodi:role="line"
         id="tspan950-6"
         x="1181.323"
         y="387.44803"
         style="font-size:320px;text-align:end;text-anchor:end;stroke:#ffffff;stroke-width:8;stroke-dasharray:none;stroke-opacity:1">space</tspan></text></g></svg>
